<?xml version="1.0" standalone="no"?><!DOCTYPE svg PUBLIC "-//W3C//DTD SVG 1.1//EN" "http://www.w3.org/Graphics/SVG/1.1/DTD/svg11.dtd"><svg t="1757208636086" class="icon" viewBox="0 0 1024 1024" version="1.1" xmlns="http://www.w3.org/2000/svg" p-id="22391" xmlns:xlink="http://www.w3.org/1999/xlink" width="200" height="200"><path d="M128 512c0-23.552 19.072-42.688 42.688-42.688h682.624c23.552 0 42.688 19.136 42.688 42.688v298.688h42.624a42.688 42.688 0 1 1 0 85.312H85.312a42.688 42.688 0 0 1 0-85.312H128V512z m85.312 298.688h597.376v-256H213.248v256z" fill="#707070" p-id="22392"></path><path d="M236.928 644.48a42.688 42.688 0 0 1 38.144 0l66.24 33.152 66.24-33.152a42.688 42.688 0 0 1 38.208 0L512 677.632l66.24-33.152a42.688 42.688 0 0 1 38.144 0l66.24 33.152 66.304-33.152a42.688 42.688 0 0 1 38.144 0l85.312 42.688a42.688 42.688 0 0 1-38.144 76.352L768 730.368l-66.24 33.152a42.624 42.624 0 0 1-38.208 0l-66.24-33.152-66.24 33.152a42.624 42.624 0 0 1-38.144 0l-66.24-33.152-66.304 33.152a42.624 42.624 0 0 1-38.144 0L256 730.368l-66.24 33.152a42.688 42.688 0 1 1-38.208-76.352l85.376-42.688zM682.624 277.312c23.616 0 42.688 19.136 42.688 42.688v192A42.688 42.688 0 0 1 640 512V320c0-23.552 19.072-42.688 42.624-42.688zM512 277.312c23.552 0 42.624 19.136 42.624 42.688v192a42.688 42.688 0 1 1-85.312 0V320c0-23.552 19.136-42.688 42.688-42.688zM341.312 277.312c23.552 0 42.688 19.136 42.688 42.688v192a42.688 42.688 0 0 1-85.312 0V320c0-23.552 19.072-42.688 42.624-42.688zM682.624 128c23.616 0 42.688 19.072 42.688 42.688v42.624a42.688 42.688 0 0 1-85.312 0v-42.624c0-23.616 19.072-42.688 42.624-42.688zM512 128c23.552 0 42.624 19.072 42.624 42.688v42.624a42.688 42.688 0 1 1-85.312 0v-42.624C469.312 147.072 488.448 128 512 128zM341.312 128c23.552 0 42.688 19.072 42.688 42.688v42.624a42.688 42.688 0 0 1-85.312 0v-42.624c0-23.616 19.072-42.688 42.624-42.688z" fill="#707070" p-id="22393"></path></svg>