<?xml version="1.0" standalone="no"?><!DOCTYPE svg PUBLIC "-//W3C//DTD SVG 1.1//EN" "http://www.w3.org/Graphics/SVG/1.1/DTD/svg11.dtd"><svg t="1757215509997" class="icon" viewBox="0 0 1024 1024" version="1.1" xmlns="http://www.w3.org/2000/svg" p-id="28840" xmlns:xlink="http://www.w3.org/1999/xlink" width="200" height="200"><path d="M896 800V448a32 32 0 0 0 0-64v-24.448l28.624-57.248A32.016 32.016 0 0 0 896 256H672v-64a32 32 0 0 0-32-32H384a32 32 0 0 0-32 32v64H128a31.984 31.984 0 0 0-28.624 46.32L128 359.552V384a32 32 0 0 0 0 64v352a32 32 0 0 0 0 64h256a32 32 0 0 0 0-64V448h256v352a32 32 0 0 0 0 64h256a32 32 0 0 0 0-64z m-64-352v352h-32V448h32zM416 224h192v32H416v-32z m-32 96h460.224l-8.848 17.68A32 32 0 0 0 832 352v32H192v-32a32 32 0 0 0-3.376-14.32L179.776 320H384zM192 448h32v352h-32V448z m128 352h-32V448h32v352z m384-352h32v352h-32V448z" p-id="28841" fill="#707070"></path></svg>