<?xml version="1.0" standalone="no"?><!DOCTYPE svg PUBLIC "-//W3C//DTD SVG 1.1//EN" "http://www.w3.org/Graphics/SVG/1.1/DTD/svg11.dtd"><svg t="1757216023568" class="icon" viewBox="0 0 1024 1024" version="1.1" xmlns="http://www.w3.org/2000/svg" p-id="33054" xmlns:xlink="http://www.w3.org/1999/xlink" width="200" height="200"><path d="M775.530667 0H248.469333C193.92 0 149.674667 42.965333 149.674667 96v832c0 53.034667 44.245333 96 98.794666 96h527.061334c54.549333 0 98.794667-42.965333 98.794666-96v-832c0-53.034667-44.245333-96-98.794666-96z m32.938666 928c0 8.490667-3.498667 16.64-9.664 22.613333-6.250667 6.037333-14.592 9.386667-23.274666 9.386667H248.469333c-8.682667 0-17.024-3.349333-23.253333-9.386667a31.552 31.552 0 0 1-9.685333-22.613333v-832c0-17.664 14.741333-32 32.938666-32H347.306667c0.896 32.469333 28.138667 58.410667 61.589333 58.581333h205.909333c33.408-0.170667 60.693333-26.112 61.589334-58.581333h98.816c8.746667 0 17.130667 3.370667 23.253333 9.386667 6.186667 5.973333 9.685333 14.122667 9.685333 22.613333l0.341334 832zM380.245333 832h263.509334v64H380.245333v-64z" fill="#707070" p-id="33055"></path></svg>