<?xml version="1.0" standalone="no"?><!DOCTYPE svg PUBLIC "-//W3C//DTD SVG 1.1//EN" "http://www.w3.org/Graphics/SVG/1.1/DTD/svg11.dtd"><svg t="1757208012561" class="icon" viewBox="0 0 1024 1024" version="1.1" xmlns="http://www.w3.org/2000/svg" p-id="15847" xmlns:xlink="http://www.w3.org/1999/xlink" width="200" height="200"><path d="M938.666667 910.222222H85.333333a85.333333 85.333333 0 0 1-85.333333-85.333333V199.111111a85.333333 85.333333 0 0 1 85.333333-85.333333h853.333334a85.333333 85.333333 0 0 1 85.333333 85.333333v625.777778a85.333333 85.333333 0 0 1-85.333333 85.333333z m28.444444-711.111111a28.444444 28.444444 0 0 0-28.444444-28.444444H85.333333a28.444444 28.444444 0 0 0-28.444444 28.444444v625.777778a28.444444 28.444444 0 0 0 28.444444 28.444444h853.333334a28.444444 28.444444 0 0 0 28.444444-28.444444V199.111111z m-113.777778 483.555556h-256a28.444444 28.444444 0 0 1 0-56.888889h256a28.444444 28.444444 0 0 1 0 56.888889z m0-142.222223h-256a28.444444 28.444444 0 0 1 0-56.888888h256a28.444444 28.444444 0 0 1 0 56.888888z m0-142.222222h-256a28.444444 28.444444 0 0 1 0-56.888889h256a28.444444 28.444444 0 0 1 0 56.888889z m-540.444444 142.222222a142.222222 142.222222 0 0 0-142.222222 142.222223H113.777778a198.656 198.656 0 0 1 115.057778-179.911111 113.777778 113.777778 0 1 1 168.106666 0A198.656 198.656 0 0 1 512 682.666667h-56.888889a142.222222 142.222222 0 0 0-142.222222-142.222223z m0-170.666666a56.888889 56.888889 0 1 0 56.888889 56.888889 56.888889 56.888889 0 0 0-56.888889-56.888889z" fill="#8a8a8a" p-id="15848"></path></svg>